<?xml version="1.0" encoding="utf-8"?>
<!-- Generated by IcoMoon.io -->
<!DOCTYPE svg PUBLIC "-//W3C//DTD SVG 1.1//EN" "http://www.w3.org/Graphics/SVG/1.1/DTD/svg11.dtd">
<svg version="1.1" xmlns="http://www.w3.org/2000/svg" xmlns:xlink="http://www.w3.org/1999/xlink" width="60" height="60" viewBox="0 0 60 60">
<g>
</g>
	<path d="M52.5 9.375h-45c-4.142 0-7.5 3.36-7.5 7.5v24.375c0 4.142 3.358 7.5 7.5 7.5h45c4.142 0 7.5-3.358 7.5-7.5v-24.375c0-4.14-3.358-7.5-7.5-7.5zM3.75 19.219l13.123 9.844-13.123 9.844v-19.688zM56.25 41.25c0 2.070-1.684 3.75-3.75 3.75h-45c-2.068 0-3.75-1.68-3.75-3.75l14.685-11.016 8.19 6.144c0.999 0.746 2.186 1.125 3.375 1.125 1.187 0 2.374-0.377 3.373-1.125l8.192-6.144 14.685 11.016zM56.25 38.906l-13.125-9.844 13.125-9.844v19.688zM32.248 34.879c-0.654 0.491-1.431 0.75-2.248 0.75s-1.596-0.261-2.25-0.75l-24-18.004c0-2.068 1.682-3.75 3.75-3.75h45c2.066 0 3.75 1.682 3.75 3.75l-24.002 18.004z" fill="#ffffff" />
</svg>
