<?xml version="1.0" encoding="utf-8"?>
<!-- Generated by IcoMoon.io -->
<!DOCTYPE svg PUBLIC "-//W3C//DTD SVG 1.1//EN" "http://www.w3.org/Graphics/SVG/1.1/DTD/svg11.dtd">
<svg version="1.1" xmlns="http://www.w3.org/2000/svg" xmlns:xlink="http://www.w3.org/1999/xlink" width="60" height="60" viewBox="0 0 60 60">
<g>
</g>
	<path d="M43.125 0h-26.25c-3.094 0-5.625 2.531-5.625 5.625v48.75c0 3.094 2.531 5.625 5.625 5.625h26.25c3.094 0 5.625-2.531 5.625-5.625v-48.75c0-3.094-2.531-5.625-5.625-5.625zM22.5 2.813h15v1.875h-15v-1.875zM30 56.25c-2.071 0-3.75-1.679-3.75-3.75s1.679-3.75 3.75-3.75 3.75 1.679 3.75 3.75-1.679 3.75-3.75 3.75zM45 45h-30v-37.5h30v37.5z" fill="#ffffff" />
</svg>
