<?xml version="1.0" encoding="utf-8"?>
<!-- Generated by IcoMoon.io -->
<!DOCTYPE svg PUBLIC "-//W3C//DTD SVG 1.1//EN" "http://www.w3.org/Graphics/SVG/1.1/DTD/svg11.dtd">
<svg version="1.1" xmlns="http://www.w3.org/2000/svg" xmlns:xlink="http://www.w3.org/1999/xlink" width="60" height="60" viewBox="0 0 60 60">
<g>
</g>
	<path d="M57.147 33.864c0.165-1.219 0.26-2.458 0.26-3.719 0-15.135-12.336-27.407-27.551-27.407-1.512 0-2.995 0.124-4.437 0.361-2.587-1.686-5.665-2.668-8.978-2.668-9.085 0-16.44 7.36-16.44 16.442 0 3.304 0.973 6.374 2.647 8.952-0.226 1.408-0.341 2.85-0.341 4.319 0 15.138 12.33 27.408 27.549 27.408 1.718 0 3.39-0.167 5.015-0.461 2.525 1.567 5.5 2.478 8.689 2.478 9.082 0 16.44-7.362 16.44-16.443-0-3.433-1.050-6.624-2.853-9.263zM32.43 50.343c-8.754 0.456-12.851-1.481-16.604-5.003-4.191-3.934-2.508-8.42 0.907-8.649 3.413-0.228 5.462 3.869 7.283 5.008 1.819 1.135 8.741 3.722 12.398-0.458 3.982-4.55-2.648-6.905-7.507-7.617-6.938-1.027-15.697-4.78-15.016-12.177 0.682-7.391 6.279-11.181 12.17-11.716 7.509-0.682 12.397 1.138 16.264 4.437 4.471 3.812 2.052 8.074-0.797 8.416-2.837 0.341-6.024-6.27-12.28-6.369-6.448-0.101-10.807 6.71-2.846 8.647 7.965 1.934 16.494 2.729 19.566 10.010 3.074 7.282-4.776 15.015-13.538 15.471z" fill="#ffffff" />
</svg>
